<svg xmlns="http://www.w3.org/2000/svg" viewBox="0 0 430 131.01"><defs><style>.cls-1{fill:#fff;}</style></defs><title>CMA Thrive Logo WHITE v1</title><g id="Layer_3" data-name="Layer 3"><polygon class="cls-1" points="342.28 0 430 87.72 430 0 342.28 0"/><path class="cls-1" d="M337.34,58.49c9.3,0,13.64,11.68,13.16,25.25H320.24c1.49-17.51,8.82-25.25,17.1-25.25m24.29,53.07c-4.81,10.38-12.07,13.91-20.42,13.91-10.66,0-21.24-11.13-21.24-30.19a73,73,0,0,1,.47-8.89h43.43c0-21-9.7-30.54-26-30.54-19.07,0-31.42,15-31.42,39.43,0,21.3,11.81,36,32,36a27.21,27.21,0,0,0,26-18.66Zm-71.25-53.4c-4.34,0-6.85-.14-11.67-.41v2.78C285.77,61,289,62.84,289,67.18a18.28,18.28,0,0,1-1.5,6.45L272.13,113.8,255,71.53a17.42,17.42,0,0,1-1.5-6.11c0-4.75,4.55-4.75,9.84-4.75V57.75c-5.56.41-12.35.54-18.05.54-4.75,0-8.62-.27-12.21-.54v2.92c2,0,5,.54,8.07,7.8L266.77,130h2.3l22.8-59.72c2.65-7.12,5.57-9.36,9-9.77V57.75c-2.92.27-6.24.41-10.52.41m-70.64-1.9a46.6,46.6,0,0,1-14.46,1.9c-2.78,0-5.7-.14-8.61-.41v2.92c8.07,0,10.58,3.93,10.58,12.28v43.5c0,7.73-2.92,10-10.58,10v2.92c3.19-.13,10.45-.54,16.83-.54s13.64.41,16.83.54v-2.92c-7.67,0-10.59-2.24-10.59-10ZM212.55,23a8.89,8.89,0,1,0,8.89,8.89A9,9,0,0,0,212.55,23M178.07,55.85c-9.7,0-17.23,9.7-20.15,17.78V56.26a46.6,46.6,0,0,1-14.46,1.9c-2.78,0-5.7-.14-8.61-.41v2.92c8.07,0,10.58,3.93,10.58,12.28v43.5c0,7.73-2.92,10-10.58,10v2.92c3.19-.13,10-.54,16.42-.54,8.62,0,17.1.41,21.37.54v-2.92c-9.16,0-14.72-2.37-14.72-11.4V85.57c0-10.31,7.67-26.12,19.34-26.12a3.37,3.37,0,0,1,2.92,1.35c-2.51,1.56-4.75,4.07-4.75,7.54,0,4.61,3.52,7.19,7.39,7.19,4.89,0,7.94-4,7.94-8.75,0-6-5.15-10.93-12.69-10.93M75,20.49c-4,1.43-9,2-14.45,2-2.78,0-5.7-.13-8.62-.41V25C60,25,62.51,28.84,62.51,37.19v79.26c0,7.73-2.92,10-10.59,10v2.92c3.19-.13,10.59-.54,16.69-.54s12.63.41,15.55.54v-2.92c-6.66,0-9.17-2.24-9.17-10v-31c0-14.73,8.08-25.18,19.48-25.18,10,0,11.26,7.4,11.26,16v40.17c0,7.73-2.51,10-9.22,10v2.92c2.91-.13,9.5-.54,15.6-.54s13.44.41,16.7.54v-2.92c-7.67,0-10.59-2.24-10.59-10V79.33c0-9.5-1.42-14.46-4.89-18.26-3.18-3.32-7.6-5.22-14.72-5.22C89.18,55.85,79.88,60,75,72.48ZM26.34,57.88V34.68a40.94,40.94,0,0,1-12.49,2V57.88H.48v2.79H13.85v46.55c0,9.91,1.36,15.34,5.43,19.47,3,3.06,6.79,4.62,13.17,4.62,11.26,0,16.15-8.35,18-19.2l-2.72-.68c-2.92,10.85-7,14.86-12.55,14.86s-8.89-3.06-8.89-11.81V60.67H46.9V57.88Z" transform="translate(-0.48 -0.29)"/></g></svg>